<?xml version="1.0" encoding="UTF-8"?>
<svg id="Livello_1" xmlns="http://www.w3.org/2000/svg" version="1.1" viewBox="0 0 841.89 595.28">
  <!-- Generator: Adobe Illustrator 29.6.1, SVG Export Plug-In . SVG Version: 2.1.1 Build 9)  -->
  <defs>
    <style>
      .st0 {
        fill: #fff;
      }
    </style>
  </defs>
  <path class="st0" d="M501.76,297.65c-.71,0-1.19.51-1.19,1.25s.48,1.17,1.19,1.17,1.19-.43,1.19-1.17-.48-1.25-1.19-1.25Z"/>
  <path class="st0" d="M451.15,297.65c-.71,0-1.19.51-1.19,1.25s.48,1.25,1.19,1.25,1.19-.51,1.19-1.25-.48-1.25-1.19-1.25Z"/>
  <path class="st0" d="M490.93,297.59c-.54,0-.96.24-1.12.76h2.26c-.18-.53-.6-.76-1.14-.76Z"/>
  <path class="st0" d="M432.81,297.65c-.71,0-1.19.51-1.19,1.25s.48,1.25,1.19,1.25,1.19-.51,1.19-1.25-.48-1.25-1.19-1.25Z"/>
  <path class="st0" d="M332.59,297.65c-.71,0-1.19.51-1.19,1.25s.48,1.25,1.19,1.25,1.19-.51,1.19-1.25-.48-1.25-1.19-1.25Z"/>
  <path class="st0" d="M528.06,297.65c-.71,0-1.19.51-1.19,1.25s.48,1.25,1.19,1.25,1.19-.51,1.19-1.25-.48-1.25-1.19-1.25Z"/>
  <path class="st0" d="M321.76,297.59c-.54,0-.96.24-1.12.76h2.26c-.18-.53-.6-.76-1.14-.76Z"/>
  <path class="st0" d="M0,289.63v16.02h841.89v-16.02H0ZM312.23,301.48h-1.9l-1.85-5.16h1.68l1.14,3.67,1.14-3.67h1.64l-1.85,5.16ZM324.51,299.34h-3.9c.13.61.59.88,1.15.88.45,0,.78-.09.98-.38h1.62c-.33,1.07-1.32,1.78-2.6,1.78-1.63,0-2.78-1.15-2.78-2.72s1.15-2.72,2.78-2.72,2.75,1.15,2.75,2.72v.44ZM335.35,298.85c0,1.73-1.17,2.77-2.75,2.77s-2.79-1.12-2.79-2.78c0-1.8,1.34-2.65,2.51-2.65.62,0,1.14.24,1.46.7v-2.82h1.57v4.79ZM342.81,301.48h-1.57v-5.16h1.57v5.16ZM342.02,295.85c-.57,0-1-.43-1-1s.43-1,1-1,1,.43,1,1-.43,1-1,1ZM357.91,301.48h-1.57v-5.16h1.57v5.16ZM357.13,295.85c-.57,0-1-.43-1-1s.43-1,1-1,1,.43,1,1-.43,1-1,1ZM365.53,301.48h-1.57v-7.42h1.57v7.42ZM383.07,297.04v1.41h-2.43v3.03h-1.57v-5.22c0-1.57.94-2.33,2.32-2.33s2.32.77,2.32,2.33h-1.57c0-.66-.31-.87-.75-.87s-.75.22-.75.87v.78h2.43ZM393.95,299c0,1.73-1.02,2.62-2.55,2.62s-2.55-.88-2.55-2.62v-2.67h1.57v2.67c0,.81.4,1.16.98,1.16s.98-.34.98-1.16v-2.67h1.57v2.67ZM404,299.45c0,1.47-.88,2.17-2.16,2.17s-2.16-.7-2.16-2.17v-4.95h1.57v1.83h2.44v1.41h-2.44v1.71c0,.54.25.71.6.71s.6-.17.6-.71v-.16h1.57v.16ZM414.55,299c0,1.73-1.02,2.62-2.55,2.62s-2.55-.88-2.55-2.62v-2.67h1.57v2.67c0,.81.4,1.16.98,1.16s.98-.34.98-1.16v-2.67h1.57v2.67ZM424.91,298.59h-1.57v-.04c0-.69-.31-.9-.75-.9s-.75.21-.75.9v2.94h-1.57v-2.94c0-1.61.94-2.36,2.32-2.36s2.31.74,2.32,2.37v.03ZM432.81,301.62c-1.63,0-2.78-1.15-2.78-2.72s1.15-2.72,2.78-2.72,2.78,1.15,2.78,2.72-1.15,2.72-2.78,2.72ZM453.91,301.48h-1.44v-.86c-.27.64-.86.99-1.6.99-1.15,0-2.5-.86-2.5-2.65,0-1.66,1.15-2.78,2.79-2.78s2.75,1.08,2.75,2.77v2.53ZM461.37,301.48h-1.57v-7.42h1.57v7.42ZM482.63,301.48h-1.57v-2.9c0-.69-.33-.93-.8-.93s-.79.24-.79.93v2.9h-1.57v-2.9c0-.69-.33-.93-.79-.93s-.8.24-.8.93v2.9h-1.57v-2.9c0-1.66.96-2.39,2.21-2.39.73,0,1.35.28,1.73.83.39-.54.99-.83,1.73-.83,1.25,0,2.21.73,2.21,2.39v2.9ZM493.67,299.34h-3.9c.13.61.59.88,1.15.88.45,0,.78-.09.98-.38h1.62c-.33,1.07-1.32,1.78-2.6,1.78-1.63,0-2.78-1.15-2.78-2.72s1.15-2.72,2.78-2.72,2.75,1.15,2.75,2.72v.44ZM504.51,301.09c0,1.97-1.24,2.74-2.74,2.74-1.32,0-2.34-.57-2.65-1.84h1.59c.16.32.53.48,1.05.48.76,0,1.18-.32,1.18-1.33v-.3c-.32.46-.85.7-1.49.7-1.1,0-2.48-.72-2.48-2.63,0-1.57,1.15-2.72,2.78-2.72s2.76,1.08,2.76,2.77v2.13ZM511.97,301.48h-1.57v-7.42h1.57v7.42ZM519.6,301.48h-1.57v-5.16h1.57v5.16ZM518.81,295.85c-.58,0-1-.43-1-1s.43-1,1-1,1,.43,1,1-.43,1-1,1ZM528.06,301.62c-1.63,0-2.78-1.15-2.78-2.72s1.15-2.72,2.78-2.72,2.78,1.15,2.78,2.72-1.15,2.72-2.78,2.72Z"/>
</svg>