<?xml version="1.0" encoding="UTF-8"?>
<svg id="Livello_1" xmlns="http://www.w3.org/2000/svg" version="1.1" viewBox="0 0 841.89 595.28">
  <!-- Generator: Adobe Illustrator 29.6.1, SVG Export Plug-In . SVG Version: 2.1.1 Build 9)  -->
  <defs>
    <style>
      .st0 {
        fill: #1d1d1b;
      }
    </style>
  </defs>
  <g>
    <path class="st0" d="M0,321.74c0-24.2,17.75-41.94,42.91-41.94,21.62,0,37.43,13.06,41.3,31.94h-19.36c-3.39-8.55-11.46-14.04-21.94-14.04-14.04,0-23.56,10-23.56,24.04s9.52,24.03,23.56,24.03c10.49,0,18.55-5.49,21.94-14.03h19.36c-3.87,18.87-19.68,31.94-41.3,31.94-25.16,0-42.91-17.75-42.91-41.94Z"/>
    <path class="st0" d="M125.85,321.74c0-24.2,17.75-41.94,42.91-41.94s42.91,17.74,42.91,41.94-17.74,41.94-42.91,41.94-42.91-17.75-42.91-41.94ZM192.15,321.74c0-14.04-9.36-24.04-23.39-24.04s-23.56,10-23.56,24.04,9.52,24.03,23.56,24.03,23.39-10,23.39-24.03Z"/>
    <path class="st0" d="M256.54,316.09c0-25,14.52-36.3,33.4-36.3,11.94,0,21.78,5,27.59,14.36,5.65-9.36,15.49-14.36,27.58-14.36,18.88,0,33.4,11.29,33.4,36.3v45.49h-19.2v-45.49c0-13.07-6.78-18.39-16.13-18.39s-15.97,5.49-15.97,18.39v45.49h-19.2v-45.49c0-12.91-6.93-18.39-16.13-18.39s-16.13,5.32-16.13,18.39v45.49h-19.2v-45.49Z"/>
    <path class="st0" d="M429.18,280.12c0-23.56,14.19-35.17,35-35.17s34.84,11.77,34.84,35.33h-19.03c0-12.59-6.45-17.42-15.81-17.42s-15.81,5-15.81,17.26v12.9h40.97v17.42h-40.97v51.14h-19.2v-81.46Z"/>
    <path class="st0" d="M533.57,321.74c0-24.2,17.75-41.94,42.91-41.94s42.91,17.74,42.91,41.94-17.74,41.94-42.91,41.94-42.91-17.75-42.91-41.94ZM599.87,321.74c0-14.04-9.36-24.04-23.39-24.04s-23.56,10-23.56,24.04,9.52,24.03,23.56,24.03,23.39-10,23.39-24.03Z"/>
    <path class="st0" d="M664.25,315.28c0-24.03,14.2-35.49,35.01-35.49s34.84,11.46,34.84,35.81v.48h-19.03v-.81c0-12.91-6.45-17.59-15.81-17.59s-15.81,4.68-15.81,17.59v46.3h-19.2v-46.3Z"/>
    <path class="st0" d="M776.71,330.93v-77.27h19.2v28.23h41.14v17.42h-41.14v31.62c0,10.65,5.49,14.84,13.39,14.84s13.39-4.03,13.39-14.84v-2.1h19.2v2.1c0,22.1-13.23,32.75-32.59,32.75s-32.59-10.65-32.59-32.75Z"/>
  </g>
  <g>
    <path class="st0" d="M620.55,282.92l-4.85-4.85c-1.57-1.57-4.1-1.57-5.67,0l-9.32,9.32c-3.71-2,12.72,14.23,10.6,10.44l9.24-9.24c1.57-1.57,1.57-4.1,0-5.67Z"/>
    <path class="st0" d="M168.77,279.81c-10.88.05-20.76,4.26-28.16,11.1-.54-4.64-2.56-9.14-6.13-12.71-4.62-4.62-10.82-6.68-16.86-6.22-.46,6.04,1.6,12.24,6.22,16.86,3.61,3.61,8.19,5.64,12.91,6.14-6.04,7.29-9.66,16.67-9.61,26.88.12,23.1,18.94,41.74,42.04,41.62,23.1-.12,41.74-18.94,41.62-42.04-.12-23.1-18.94-41.74-42.04-41.62ZM169.13,349.86c-15.58.08-28.28-12.49-28.36-28.07-.08-15.58,12.49-28.28,28.07-28.36,15.58-.08,28.28,12.49,28.36,28.07.08,15.58-12.49,28.28-28.07,28.36Z"/>
  </g>
</svg>