<?xml version="1.0" encoding="UTF-8" standalone="no"?>
<svg
   id="Livello_1"
   version="1.1"
   viewBox="0 0 999.99998 999.99995"
   width="1000"
   height="1000"
   xmlns="http://www.w3.org/2000/svg"
   xmlns:svg="http://www.w3.org/2000/svg">
  <!-- Generator: Adobe Illustrator 29.6.1, SVG Export Plug-In . SVG Version: 2.1.1 Build 9)  -->
  <defs
     id="defs1">
    <style
       id="style1">
      .st0 {
        fill: #1d1d1b;
      }
    </style>
  </defs>
  <path
     id="path2"
     class="st0"
     d="m 302.34341,329.89638 c -47.39,0.24 -90.46,18.55 -122.73,48.36 -2.34,-20.23 -11.17,-39.85 -26.69,-55.38 -20.13,-20.13 -47.14,-29.13 -73.459998,-27.12 -2.01,26.32 6.98,53.33 27.119998,73.46 15.75,15.75 35.71,24.58 56.26,26.76 -26.33,31.78 -42.09,72.62 -41.86,117.13 0.51,100.68 82.54,181.89 183.22,181.38 100.68,-0.51 181.88,-82.54 181.38,-183.22 -0.51,-100.68 -82.54,-181.88 -183.22,-181.38 z m 1.55,305.25 c -67.9,0.34 -123.23,-54.43 -123.57,-122.33 -0.34,-67.9 54.43,-123.23 122.33,-123.57 67.9,-0.34 123.23,54.43 123.57,122.33 0.34,67.9 -54.43,123.23 -122.33,123.57 z m 607.26997,-304.53 -19.65,-19.65 c -6.35,-6.35 -16.63,-6.35 -22.98,0 l -37.77,37.77 c -15.04,-8.09 -32.23,-12.69 -50.47,-12.69 H 645.05341 c -59.06,0 -106.94,47.88 -106.94,106.94 v 135.24 c 0,59.06 47.88,106.94 106.94,106.94 h 135.23997 c 59.06,0 106.94,-47.88 106.94,-106.94 v -135.24 c 0,-18.84 -4.92,-36.55 -13.51,-51.94 l 37.44,-37.44 c 6.35,-6.35 6.35,-16.63 0,-22.98 z m -81.21,247.61 c 0,27.43 -22.24,49.67 -49.67,49.67 H 645.04341 c -27.43,0 -49.67,-22.24 -49.67,-49.67 v -135.24 c 0,-27.43 22.24,-49.67 49.67,-49.67 h 135.23997 c 27.43,0 49.67,22.24 49.67,49.67 z M 1000.0045,500.00441 A 500,500 0 0 1 500.00451,1000.0045 500,500 0 0 1 0.00451125,500.00441 500,500 0 0 1 500.00451,0.00441145 500,500 0 0 1 1000.0045,500.00441 Z" />
</svg>
