<?xml version="1.0" encoding="UTF-8"?>
<svg id="Livello_1" xmlns="http://www.w3.org/2000/svg" version="1.1" viewBox="0 0 841.89 595.28">
  <!-- Generator: Adobe Illustrator 29.6.1, SVG Export Plug-In . SVG Version: 2.1.1 Build 9)  -->
  <defs>
    <style>
      .st0 {
        fill: #1d1d1b;
      }
    </style>
  </defs>
  <path class="st0" d="M834.7,116.11l-19.65-19.65c-6.35-6.35-16.63-6.35-22.98,0l-37.77,37.77c-15.04-8.09-32.23-12.69-50.47-12.69h-135.24c-59.06,0-106.94,47.88-106.94,106.94v135.24c0,59.06,47.88,106.94,106.94,106.94h135.24c59.06,0,106.94-47.88,106.94-106.94v-135.24c0-18.84-4.92-36.55-13.51-51.94l37.44-37.44c6.35-6.35,6.35-16.63,0-22.98ZM753.49,363.72c0,27.43-22.24,49.67-49.67,49.67h-135.24c-27.43,0-49.67-22.24-49.67-49.67v-135.24c0-27.43,22.24-49.67,49.67-49.67h135.24c27.43,0,49.67,22.24,49.67,49.67v135.24Z"/>
  <path class="st0" d="M225.88,115.39c-47.39.24-90.46,18.55-122.73,48.36-2.34-20.23-11.17-39.85-26.69-55.38-20.13-20.13-47.14-29.13-73.46-27.12-2.01,26.32,6.98,53.33,27.12,73.46,15.75,15.75,35.71,24.58,56.26,26.76-26.33,31.78-42.09,72.62-41.86,117.13.51,100.68,82.54,181.89,183.22,181.38,100.68-.51,181.88-82.54,181.38-183.22-.51-100.68-82.54-181.88-183.22-181.38ZM227.43,420.64c-67.9.34-123.23-54.43-123.57-122.33-.34-67.9,54.43-123.23,122.33-123.57,67.9-.34,123.23,54.43,123.57,122.33s-54.43,123.23-122.33,123.57Z"/>
</svg>