<?xml version="1.0" encoding="UTF-8"?>
<svg id="Livello_1" xmlns="http://www.w3.org/2000/svg" version="1.1" viewBox="0 0 841.89 595.28">
  <!-- Generator: Adobe Illustrator 29.6.1, SVG Export Plug-In . SVG Version: 2.1.1 Build 9)  -->
  <defs>
    <style>
      .st0 {
        fill: #1d1d1b;
      }
    </style>
  </defs>
  <path class="st0" d="M0,294.75h11.05c.09,3.04,2.76,5.06,8.11,5.06,5.62,0,8.01-2.3,8.01-5.06,0-3.5-4.05-3.96-8.93-4.61-7-.92-17.31-2.12-17.31-13.26,0-9.3,7.09-15.38,18.05-15.38s17.96,6.26,18.23,14.27h-10.87c-.28-2.76-2.85-4.7-7.18-4.7-4.79,0-7.18,2.3-7.18,4.97,0,3.5,4.15,4.05,9.03,4.7,6.08.83,17.22,2.03,17.22,13.36,0,9.21-7.46,15.29-19.06,15.29s-18.88-6.17-19.16-14.64Z"/>
  <path class="st0" d="M63.92,286.36v-23.67h10.96v23.67c0,8.66,4.6,12.8,11.51,12.8s11.51-4.15,11.51-12.8v-23.67h10.96v23.67c0,15.2-9.03,23.03-22.47,23.03s-22.47-7.74-22.47-23.03Z"/>
  <path class="st0" d="M134.57,294.75h11.05c.09,3.04,2.76,5.06,8.11,5.06,5.62,0,8.01-2.3,8.01-5.06,0-3.5-4.05-3.96-8.93-4.61-7-.92-17.31-2.12-17.31-13.26,0-9.3,7.09-15.38,18.05-15.38s17.96,6.26,18.23,14.27h-10.87c-.28-2.76-2.85-4.7-7.18-4.7-4.79,0-7.18,2.3-7.18,4.97,0,3.5,4.15,4.05,9.03,4.7,6.08.83,17.22,2.03,17.22,13.36,0,9.21-7.46,15.29-19.06,15.29s-18.88-6.17-19.16-14.64Z"/>
  <path class="st0" d="M198.49,290.69v-44.11h10.96v16.11h23.48v9.95h-23.48v18.05c0,6.08,3.13,8.47,7.64,8.47s7.65-2.3,7.65-8.47v-1.2h10.96v1.2c0,12.62-7.55,18.7-18.6,18.7s-18.6-6.08-18.6-18.7Z"/>
  <path class="st0" d="M259.28,285.91c0-14.46,10.13-24.4,24.59-24.4s24.22,9.67,24.22,24.31v22.38h-10.04v-8.93c-2.76,6.72-8.93,10.13-16.12,10.13-11.05,0-22.65-7.92-22.65-23.48ZM297.12,285.44c0-8.01-5.34-13.72-13.35-13.72s-13.45,5.71-13.45,13.72,5.44,13.72,13.45,13.72,13.35-5.71,13.35-13.72Z"/>
  <path class="st0" d="M335.36,249.53c0-4.24,3.04-7.37,7.27-7.37s7.28,3.13,7.28,7.37-3.04,7.27-7.28,7.27-7.27-3.04-7.27-7.27ZM337.11,262.7h10.96v45.49h-10.96v-45.49Z"/>
  <path class="st0" d="M377.07,284.52c0-15.2,9.03-23.02,22.47-23.02s22.47,7.73,22.47,23.02v23.67h-10.96v-23.67c0-8.66-4.6-12.8-11.51-12.8s-11.51,4.15-11.51,12.8v23.67h-10.96v-23.67Z"/>
  <path class="st0" d="M447.63,285.91c0-14.46,10.13-24.4,24.59-24.4s24.22,9.67,24.22,24.31v22.38h-10.04v-8.93c-2.76,6.72-8.93,10.13-16.12,10.13-11.05,0-22.65-7.92-22.65-23.48ZM485.48,285.44c0-8.01-5.34-13.72-13.35-13.72s-13.45,5.71-13.45,13.72,5.44,13.72,13.45,13.72,13.35-5.71,13.35-13.72Z"/>
  <path class="st0" d="M523.89,285.08v-42.27h10.96v26.52c3.22-5.06,8.66-7.83,15.2-7.83,11.05,0,22.65,7.92,22.65,23.48,0,14.46-10.13,24.4-24.59,24.4s-24.22-9.58-24.22-24.31ZM561.65,285.44c0-8.01-5.43-13.72-13.45-13.72s-13.35,5.71-13.35,13.72,5.34,13.72,13.35,13.72,13.45-5.71,13.45-13.72Z"/>
  <path class="st0" d="M598.13,249.53c0-4.24,3.04-7.37,7.27-7.37s7.28,3.13,7.28,7.37-3.04,7.27-7.28,7.27-7.27-3.04-7.27-7.27ZM599.88,262.7h10.96v45.49h-10.96v-45.49Z"/>
  <path class="st0" d="M641.42,242.81h10.96v65.38h-10.96v-65.38Z"/>
  <path class="st0" d="M681.21,249.53c0-4.24,3.04-7.37,7.27-7.37s7.28,3.13,7.28,7.37-3.04,7.27-7.28,7.27-7.27-3.04-7.27-7.27ZM682.96,262.7h10.96v45.49h-10.96v-45.49Z"/>
  <path class="st0" d="M722.93,290.69v-44.11h10.96v16.11h23.48v9.95h-23.48v18.05c0,6.08,3.13,8.47,7.64,8.47s7.65-2.3,7.65-8.47v-1.2h10.96v1.2c0,12.62-7.55,18.7-18.6,18.7s-18.6-6.08-18.6-18.7Z"/>
  <path class="st0" d="M805.27,282.77l5.8-.54,5.99.27v25.69h-11.79v-25.42Z"/>
  <g>
    <path class="st0" d="M780.59,254.86c-.82,8.02,1.83,16.32,7.97,22.46,6.14,6.14,14.45,8.79,22.46,7.97.82-8.02-1.83-16.32-7.97-22.46s-14.45-8.79-22.46-7.97Z"/>
    <path class="st0" d="M841.74,254.86c-8.02-.82-16.32,1.83-22.46,7.97-6.14,6.14-8.79,14.45-7.97,22.46,8.02.82,16.32-1.83,22.46-7.97,6.14-6.14,8.79-14.45,7.97-22.46Z"/>
  </g>
</svg>