<?xml version="1.0" encoding="UTF-8" standalone="no"?>
<svg
   id="Livello_1"
   version="1.1"
   viewBox="0 0 842.87304 273.82091"
   sodipodi:docname="LOGOTBbianco.svg"
   inkscape:export-filename="LOGOTBbianco.svg"
   inkscape:export-xdpi="96"
   inkscape:export-ydpi="96"
   inkscape:version="1.4.2 (ebf0e940d0, 2025-05-08)"
   width="842.87305"
   height="273.82092"
   xmlns:inkscape="http://www.inkscape.org/namespaces/inkscape"
   xmlns:sodipodi="http://sodipodi.sourceforge.net/DTD/sodipodi-0.dtd"
   xmlns="http://www.w3.org/2000/svg"
   xmlns:svg="http://www.w3.org/2000/svg">
  <sodipodi:namedview
     id="namedview11"
     pagecolor="#ffffff"
     bordercolor="#000000"
     borderopacity="0.25"
     inkscape:showpageshadow="2"
     inkscape:pageopacity="0.0"
     inkscape:pagecheckerboard="0"
     inkscape:deskcolor="#d1d1d1"
     inkscape:zoom="0.57370914"
     inkscape:cx="704.18958"
     inkscape:cy="214.39435"
     inkscape:window-width="1680"
     inkscape:window-height="1013"
     inkscape:window-x="0"
     inkscape:window-y="0"
     inkscape:window-maximized="1"
     inkscape:current-layer="g11" />
  <!-- Generator: Adobe Illustrator 29.6.1, SVG Export Plug-In . SVG Version: 2.1.1 Build 9)  -->
  <defs
     id="defs1">
    <style
       id="style1">
      .st0 {
        fill: #1d1d1b;
      }
    </style>
  </defs>
  <g
     id="g2"
     style="fill:#ffffff"
     transform="translate(-0.72070312,-139.82071)">
    <path
       class="st0"
       d="m 582,153.86 -7.85,-7.85 c -2.54,-2.54 -6.65,-2.54 -9.18,0 l -15.1,15.1 c -6.01,-3.23 -12.88,-5.07 -20.17,-5.07 h -54.05 c -23.61,0 -42.74,19.14 -42.74,42.74 v 54.05 c 0,23.61 19.14,42.74 42.74,42.74 h 54.06 c 23.61,0 42.74,-19.14 42.74,-42.74 v -54.06 c 0,-7.53 -1.97,-14.61 -5.4,-20.76 l 14.97,-14.97 c 2.54,-2.54 2.54,-6.65 0,-9.18 z m -32.45,98.96 c 0,10.96 -8.89,19.85 -19.85,19.85 h -54.05 c -10.96,0 -19.85,-8.89 -19.85,-19.85 v -54.05 c 0,-10.96 8.89,-19.85 19.85,-19.85 h 54.06 c 10.96,0 19.85,8.89 19.85,19.85 v 54.06 z"
       id="path1"
       style="fill:#ffffff" />
    <path
       class="st0"
       d="m 338.67,153.57 c -18.94,0.1 -36.16,7.41 -49.05,19.33 -0.94,-8.09 -4.46,-15.93 -10.67,-22.13 -8.05,-8.05 -18.84,-11.64 -29.36,-10.84 -0.8,10.52 2.79,21.32 10.84,29.36 6.29,6.29 14.27,9.83 22.48,10.7 -10.52,12.7 -16.82,29.03 -16.73,46.81 0.2,40.24 32.99,72.7 73.23,72.49 40.24,-0.2 72.7,-32.99 72.49,-73.23 -0.2,-40.24 -32.99,-72.7 -73.23,-72.49 z m 0.61,122 c -27.14,0.14 -49.25,-21.75 -49.39,-48.89 -0.14,-27.14 21.75,-49.25 48.89,-49.39 27.14,-0.14 49.25,21.75 49.39,48.89 0.14,27.14 -21.75,49.25 -48.89,49.39 z"
       id="path2"
       style="fill:#ffffff" />
  </g>
  <g
     id="g11"
     style="fill:#000000"
     transform="translate(-0.72070312,-139.82071)">
    <path
       id="path3"
       style="fill:#ffffff"
       class="st0"
       d="m 0.72070312,349.25977 c 10e-9,1.44661 0,2.89322 0,4.33984 7.57617188,0 15.15234388,0 22.72851588,0 0,19.61003 0,39.22005 0,58.83008 2.207031,0 4.414062,0 6.621093,0 0,-19.61003 10e-7,-39.22005 0,-58.83008 7.606771,0 15.213542,0 22.820313,0 0,-2.11328 0,-4.22656 0,-6.33984 -17.389974,0 -34.779948,0 -52.16992188,0 10e-9,0.66666 0,1.33333 0,2 z" />
    <path
       id="path4"
       style="fill:#ffffff"
       class="st0"
       d="m 98.369141,349.25 c 0.02252,14.43877 -0.05762,28.87795 0.05273,43.31641 0.301662,6.04988 2.659999,12.24904 7.402349,16.19531 5.31417,4.44381 12.7523,5.71884 19.43451,4.36707 5.45188,-1.07674 10.45264,-4.49052 13.17951,-9.36994 0.301,-1.01805 0.61475,-0.28815 0.92748,0.30176 2.69331,4.63055 7.45979,7.88243 12.66965,8.99863 6.37258,1.36513 13.45211,0.36922 18.78096,-3.53135 4.12301,-3.00689 6.80804,-7.69573 7.81491,-12.65591 0.9474,-4.52347 0.5308,-9.17313 0.61543,-13.75869 0.008,-11.95442 0.001,-23.90886 0.003,-35.86329 -2.20638,0 -4.41276,0 -6.61914,0 -0.0153,15.0248 0.0497,30.05102 -0.0546,45.07488 -0.24002,4.57997 -2.02215,9.39187 -5.85253,12.15185 -4.2428,3.07409 -9.98951,3.48432 -14.8957,1.95737 -4.20507,-1.42143 -7.53057,-5.0088 -8.77554,-9.25274 -1.39263,-4.48564 -0.82,-9.23754 -0.93339,-13.85636 0,-12.025 0,-24.05 0,-36.075 -2.20638,0 -4.41276,0 -6.61914,0 -0.0169,15.02347 0.0536,30.04849 -0.0591,45.07094 -0.25682,4.8334 -2.36492,9.86443 -6.5479,12.55836 -4.59673,2.96656 -10.68686,3.12151 -15.64341,0.97717 -4.03377,-1.84596 -6.87882,-5.79136 -7.72588,-10.10501 -0.88097,-4.2234 -0.42099,-8.56061 -0.53344,-12.83896 0,-11.8875 0,-23.775 0,-35.6625 -2.20703,0 -4.41406,0 -6.621093,0 0,0.66667 0,1.33333 0,2 z" />
    <path
       id="path5"
       style="fill:#ffffff"
       class="st0"
       d="m 228.84961,349.25977 c 0,21.05664 0,42.11328 0,63.16992 2.20703,0 4.41406,0 6.62109,0 0,-21.72331 0,-43.44662 0,-65.16992 -2.20703,0 -4.41406,0 -6.62109,0 0,0.66666 0,1.33333 0,2 z" />
    <path
       id="path6"
       style="fill:#ffffff"
       class="st0"
       d="m 311.02734,346.07617 c -6.58687,0.20059 -13.38747,2.20458 -18.26395,6.80392 -5.08429,4.75128 -7.49911,11.79747 -7.65055,18.64404 -0.13044,4.869 -5.4e-4,9.7411 -0.0523,14.61142 0,8.76471 0,17.52942 0,26.29414 2.20638,0 4.41276,0 6.61914,0 0.0162,-13.75008 -0.0522,-27.50154 0.058,-41.25069 0.26093,-5.29817 2.16766,-10.81655 6.34455,-14.29269 4.14741,-3.46744 9.74434,-4.60721 15.03454,-4.49397 5.2913,0.0661 10.85815,1.53023 14.71758,5.33071 3.87325,3.84029 5.47251,9.45816 5.44797,14.80265 0.0911,7.41131 0.007,14.82379 0.038,22.23563 0,5.88945 0,11.7789 0,17.66836 2.20638,0 4.41276,0 6.61914,0 -0.0177,-13.80668 0.055,-27.61509 -0.0598,-41.42063 -0.29344,-6.62663 -2.63618,-13.42196 -7.5524,-18.04172 -4.89308,-4.64718 -11.73425,-6.7128 -18.37211,-6.88455 -0.9754,-0.0427 -1.95196,-0.013 -2.92785,-0.007 z" />
    <path
       id="path7"
       style="fill:#ffffff"
       class="st0"
       d="m 420.02539,347.25977 c -10.28841,0 -20.57682,0 -30.86523,0 0,21.72656 0,43.45312 0,65.17968 12.03898,-0.0267 24.08016,0.0665 36.1177,-0.0667 5.45329,-0.3018 11.04461,-2.72969 14.1835,-7.34426 3.62487,-5.2954 3.99541,-12.4706 1.47055,-18.29739 -1.5963,-3.56636 -4.51329,-6.49635 -7.9866,-8.24083 0.79711,-0.8082 1.80557,-1.44084 2.54102,-2.33789 4.32429,-4.81558 5.32311,-12.0741 3.16601,-18.08007 -1.39415,-3.85402 -4.32484,-7.12601 -8.06817,-8.82336 -3.27376,-1.56443 -6.95886,-2.07114 -10.55878,-1.98914 z m -4.64062,6.32812 c 2.63091,0.0622 5.27248,-0.0926 7.89595,0.1327 3.34465,0.36375 6.84639,1.92935 8.462,5.03676 1.80268,3.34898 1.74824,7.49948 0.3949,10.99353 -1.42848,3.33674 -4.77424,5.63521 -8.35234,6.02558 -3.21299,0.41242 -6.45987,0.0803 -9.68762,0.19424 -6.10938,0 -12.21875,0 -18.32813,0 0,-7.46028 0,-14.92057 0,-22.38086 6.53841,-8.9e-4 13.07682,-0.002 19.61524,-0.002 z m 2.15429,28.7207 c 2.69089,0.0495 5.38977,-0.0675 8.07532,0.0958 3.80756,0.39709 7.58211,2.63941 9.10005,6.26106 1.68967,3.70261 1.6256,8.18441 -0.15666,11.83976 -1.64677,3.10843 -5.00225,5.02437 -8.44476,5.37978 -3.46367,0.42733 -6.96071,0.0938 -10.43918,0.20482 -6.63151,0 -13.26302,0 -19.89453,0 0,-7.92643 0,-15.85286 0,-23.77929 7.25325,-8.9e-4 14.50651,-0.002 21.75976,-0.002 z" />
    <path
       id="path8"
       style="fill:#ffffff"
       class="st0"
       d="m 489.33008,349.25977 c 0,21.05664 0,42.11328 0,63.16992 16.23633,0 32.47265,0 48.70898,0 0,-2.11328 0,-4.22657 0,-6.33985 -14.02995,0 -28.05989,0 -42.08984,0 0,-7.86328 0,-15.72656 0,-23.58984 12.22331,0 24.44661,0 36.66992,0 0,-2.11328 0,-4.22656 0,-6.33984 -12.22331,0 -24.44661,0 -36.66992,0 0,-7.52019 0,-15.04037 0,-22.56055 14.02995,0 28.05989,0 42.08984,0 0,-2.11328 0,-4.22656 0,-6.33984 -16.23633,0 -32.47265,0 -48.70898,0 0,0.66666 0,1.33333 0,2 z" />
    <path
       id="path9"
       style="fill:#ffffff"
       class="st0"
       d="m 616.1543,347.25977 c -9.82162,0 -19.64323,0 -29.46485,0 0,21.7233 0,43.44661 0,65.16992 2.20703,0 4.41407,0 6.6211,0 0,-8.38672 0,-16.77344 0,-25.16016 7.02278,0 14.04557,0 21.06836,0 6.60987,8.38684 13.22099,16.7727 19.83007,25.16016 2.82553,0 5.65105,0 8.47657,0 -6.74806,-8.5246 -13.49747,-17.04812 -20.2461,-25.57227 4.17253,-0.72523 8.29618,-2.51313 11.1543,-5.72265 3.3355,-3.61766 4.6466,-8.64148 4.71397,-13.4621 0.0535,-4.45462 -0.89807,-9.06774 -3.57139,-12.71759 -2.80265,-4.02951 -7.46794,-6.3836 -12.21921,-7.20478 -2.09644,-0.38361 -4.23384,-0.51255 -6.36282,-0.49053 z m -10.47461,6.33593 c 4.41563,0.0247 8.83508,-0.0503 13.24817,0.0825 3.84032,0.26005 7.95092,1.57027 10.30197,4.80759 2.46674,3.4143 2.77666,7.89184 2.22334,11.94383 -0.52802,3.4993 -2.44733,6.97094 -5.69743,8.59995 -3.67345,2.00702 -7.98505,1.95306 -12.05144,1.90009 -6.79792,0 -13.59584,0 -20.39375,0 0,-9.11003 0,-18.22005 0,-27.33008 4.12305,0.005 8.24609,0.004 12.36914,-0.004 z" />
    <path
       id="path10"
       style="fill:#ffffff"
       class="st0"
       d="m 717.34766,347.25977 c -9.78907,0 -19.57813,0 -29.36719,0 0,21.7233 0,43.44661 0,65.16992 2.20638,0 4.41276,0 6.61914,0 0,-8.38672 0,-16.77344 0,-25.16016 7.02344,0 14.04687,0 21.07031,0 6.60987,8.38684 13.22099,16.7727 19.83008,25.16016 2.82487,0 5.64974,0 8.47461,0 -6.74772,-8.52435 -13.49613,-17.04815 -20.24414,-25.57227 4.15674,-0.72652 8.26988,-2.49738 11.12267,-5.69217 3.26948,-3.51867 4.60564,-8.39646 4.73799,-13.10466 0.12404,-4.73856 -0.89482,-9.69035 -3.85793,-13.4977 -3.0546,-4.13764 -8.08103,-6.33611 -13.07008,-6.99616 -1.75976,-0.24604 -3.5396,-0.33009 -5.31546,-0.30696 z m -10.36719,6.33593 c 4.41563,0.0247 8.83508,-0.0503 13.24818,0.0825 3.81455,0.2584 7.89617,1.55037 10.25352,4.74528 2.49384,3.38988 2.8197,7.86113 2.28836,11.90948 -0.50998,3.50164 -2.39632,6.99124 -5.63022,8.65245 -3.69099,2.04634 -8.04163,1.99895 -12.13875,1.94425 -6.79739,0 -13.59479,0 -20.39218,0 0,-9.11003 -10e-6,-18.22005 0,-27.33008 4.1237,0.005 8.24739,0.004 12.37109,-0.004 z" />
    <path
       id="path11"
       style="fill:#ffffff"
       class="st0"
       d="m 782.24023,350.49805 c 8.71806,11.05276 17.43644,22.10528 26.1543,33.1582 -0.0328,9.5888 -0.004,19.18267 -0.0137,28.77344 2.20638,0 4.41276,0 6.61914,0 0,-9.63216 0,-19.26433 0,-28.89649 9.53126,-12.09114 19.06243,-24.18234 28.59375,-36.27343 -2.78841,0 -5.57682,0 -8.36523,0 -7.84721,9.97133 -15.69257,19.94412 -23.53907,29.91601 -7.84649,-9.97189 -15.69185,-19.94468 -23.53906,-29.91601 -2.82161,0 -5.64323,0 -8.46484,0 0.85156,1.07942 1.70312,2.15885 2.55468,3.23828 z" />
  </g>
</svg>
