<?xml version="1.0" encoding="UTF-8"?>
<svg id="Livello_1" xmlns="http://www.w3.org/2000/svg" version="1.1" viewBox="0 0 841.89 595.28">
  <!-- Generator: Adobe Illustrator 29.6.1, SVG Export Plug-In . SVG Version: 2.1.1 Build 9)  -->
  <defs>
    <style>
      .st0 {
        fill: #1d1d1b;
      }
    </style>
  </defs>
  <g>
    <path class="st0" d="M582,153.86l-7.85-7.85c-2.54-2.54-6.65-2.54-9.18,0l-15.1,15.1c-6.01-3.23-12.88-5.07-20.17-5.07h-54.05c-23.61,0-42.74,19.14-42.74,42.74v54.05c0,23.61,19.14,42.74,42.74,42.74h54.06c23.61,0,42.74-19.14,42.74-42.74v-54.06c0-7.53-1.97-14.61-5.4-20.76l14.97-14.97c2.54-2.54,2.54-6.65,0-9.18ZM549.55,252.82c0,10.96-8.89,19.85-19.85,19.85h-54.05c-10.96,0-19.85-8.89-19.85-19.85v-54.05c0-10.96,8.89-19.85,19.85-19.85h54.06c10.96,0,19.85,8.89,19.85,19.85v54.06Z"/>
    <path class="st0" d="M338.67,153.57c-18.94.1-36.16,7.41-49.05,19.33-.94-8.09-4.46-15.93-10.67-22.13-8.05-8.05-18.84-11.64-29.36-10.84-.8,10.52,2.79,21.32,10.84,29.36,6.29,6.29,14.27,9.83,22.48,10.7-10.52,12.7-16.82,29.03-16.73,46.81.2,40.24,32.99,72.7,73.23,72.49,40.24-.2,72.7-32.99,72.49-73.23-.2-40.24-32.99-72.7-73.23-72.49ZM339.28,275.57c-27.14.14-49.25-21.75-49.39-48.89-.14-27.14,21.75-49.25,48.89-49.39,27.14-.14,49.25,21.75,49.39,48.89s-21.75,49.25-48.89,49.39Z"/>
  </g>
  <g>
    <path class="st0" d="M25.45,351.6H2.72v-2.34h48.17v2.34h-22.82v58.83h-2.62v-58.83Z"/>
    <path class="st0" d="M100.37,390.69v-41.44h2.62v41.44c0,12.07,7.39,18.61,17.3,18.61s17.21-6.92,17.21-18.61v-41.44h2.62v41.44c0,11.69,7.2,18.61,17.21,18.61s17.3-6.55,17.3-18.61v-41.44h2.62v41.44c0,13.66-8.61,20.95-19.83,20.95-9.26,0-16.18-5.05-18.61-13.94-2.43,8.89-9.35,13.94-18.61,13.94-11.22,0-19.83-7.3-19.83-20.95Z"/>
    <path class="st0" d="M230.85,349.26h2.62v61.17h-2.62v-61.17Z"/>
    <path class="st0" d="M287.06,373.02c0-15.25,9.07-24.97,25.44-24.97s25.44,9.73,25.44,24.97v37.41h-2.62v-37.41c0-13.84-8.04-22.64-22.82-22.64s-22.82,8.79-22.82,22.64v37.41h-2.62v-37.41Z"/>
    <path class="st0" d="M391.16,349.26h29.84c10.66,0,16.74,6.27,16.74,15.25,0,6.83-3.74,12.16-9.82,14.22v.19c7.76,1.59,12.63,7.67,12.63,15.62,0,9.26-6.27,15.9-17.12,15.9h-32.27v-61.17ZM421.37,377.97c8.42,0,13.75-5.33,13.75-13.38,0-7.48-4.58-13-14.22-13h-27.13v26.38h27.59ZM423.34,408.09c9.82,0,14.59-5.89,14.59-13.66,0-8.32-5.52-14.12-14.12-14.12h-30.03v27.78h29.56Z"/>
    <path class="st0" d="M491.33,349.26h44.71v2.34h-42.09v26.56h36.67v2.34h-36.67v27.59h42.09v2.34h-44.71v-61.17Z"/>
    <path class="st0" d="M588.7,349.26h28.15c13.56,0,19.46,7.67,19.46,17.96s-5.43,17.4-17.68,18.05l19.92,25.16h-3.37l-19.83-25.16h-24.04v25.16h-2.62v-61.17ZM616.85,382.93c12.25,0,16.84-6.83,16.84-15.71s-4.68-15.62-16.84-15.62h-25.54v31.33h25.54Z"/>
    <path class="st0" d="M689.99,349.26h28.15c13.56,0,19.46,7.67,19.46,17.96s-5.43,17.4-17.68,18.05l19.92,25.16h-3.37l-19.83-25.16h-24.04v25.16h-2.62v-61.17ZM718.15,382.93c12.25,0,16.84-6.83,16.84-15.71s-4.68-15.62-16.84-15.62h-25.54v31.33h25.54Z"/>
    <path class="st0" d="M810.37,382.93l-26.56-33.67h3.37l24.51,31.15,24.51-31.15h3.27l-26.47,33.58v27.59h-2.62v-27.5Z"/>
  </g>
</svg>